<svg viewBox="0 0 65 26" xmlns="http://www.w3.org/2000/svg">
  <!-- 白色圆润文字部分 -->
  <g fill="#fff" stroke="#fff" stroke-width="0.5" stroke-linejoin="round">
    <path d="M36.2 9.5a4.5 4.5 0 0 1 1.2 3.5v7.2h-2v-6.6a3.5 3.5 0 0 0-.6-2.5 2.7 2.7 0 0 0-2-.7 3 3 0 0 0-1.6.4 3.2 3.2 0 0 0-1.3 1.2 4.8 4.8 0 0 0-.5 2.2v6h-1.8v-10.8l1.6.6v.7a3 3 0 0 1 1.5-1.4 5.2 5.2 0 0 1 2.2-.5 4.5 4.5 0 0 1 3 1z"/>
    
    <path d="M50.5 14.8h-8.5a3.6 3.6 0 0 0 1.1 2.6 3.2 3.2 0 0 0 2.5 1 6.1 6.1 0 0 0 2-.3 2.1 2.1 0 0 0 1-1.2l1.5.7a5.4 5.4 0 0 1-1.8 1.8 5.7 5.7 0 0 1-2.8.6 5 5 0 0 1-3.9-1.5 5.7 5.7 0 0 1-1.4-4.2 6.2 6.2 0 0 1 1.3-4.2 4.8 4.8 0 0 1 3.9-1.5 4.4 4.4 0 0 1 2.6.7 4.1 4.1 0 0 1 1.7 1.9 5.6 5.6 0 0 1 .5 2.6 5.3 5.3 0 0 1-.1 1.2zm-7.3-4.1a4.6 4.6 0 0 0-1.1 2.5h6.6a3.8 3.8 0 0 0-.9-2.5 3 3 0 0 0-2.2-.8 3.1 3.1 0 0 0-2.4.8z"/>
    
    <path d="M62.8 9.8a6.2 6.2 0 0 1 1.3 4.2 6 6 0 0 1-1.3 4.2 5 5 0 0 1-3.9 1.5 4.7 4.7 0 0 1-3.9-1.5 5.7 5.7 0 0 1-1.4-4.2 5.8 5.8 0 0 1 1.4-4.2 4.7 4.7 0 0 1 3.9-1.5 5 5 0 0 1 3.9 1.5zm-6.5 1.1a4.3 4.3 0 0 0-.9 3 4.1 4.1 0 0 0 .9 3 3.3 3.3 0 0 0 2.6 1.1 3.2 3.2 0 0 0 2.5-1.1 4.1 4.1 0 0 0 .9-3 4.3 4.3 0 0 0-.9-3 3.2 3.2 0 0 0-2.5-1.1 3.3 3.3 0 0 0-2.6 1.1z"/>
  </g>
  
  <!-- 调整后的图形部分（更深的绿色增强对比） -->
  <path d="M3 6.2v14.5c0 .3.2.5.5.6l9.5 3.5c.3.1.5-.1.5-.4V9.8c0-.3-.2-.5-.5-.6L3.5 5.7c-.3-.1-.5.1-.5.5z" 
        fill="#00997a" stroke="#007a6e" stroke-width="0.5"/>
  
  <path d="M13.5 10.4v8.2c0 .3.2.5.5.6l9.5 3.5c.3.1.5-.1.5-.4V7.8c0-.3-.2-.5-.5-.6l-9.5-3.5c-.3-.1-.5.1-.5.5v6.2z" 
        fill="#007a6e" stroke="#005c4d" stroke-width="0.5"/>
</svg>